<svg width="130" height="130" viewBox="0 0 130 130" fill="none" xmlns="http://www.w3.org/2000/svg">
<path d="M117.812 20.3125H12.1875C9.94043 20.3125 8.125 22.1279 8.125 24.375V105.625C8.125 107.872 9.94043 109.688 12.1875 109.688H117.812C120.06 109.688 121.875 107.872 121.875 105.625V24.375C121.875 22.1279 120.06 20.3125 117.812 20.3125ZM107.555 34.1377L67.501 65.3047C66.5107 66.0791 65.127 66.0791 64.1367 65.3047L24.0703 34.1377C23.9193 34.0211 23.8085 33.8602 23.7535 33.6776C23.6985 33.4949 23.702 33.2996 23.7636 33.119C23.8252 32.9384 23.9418 32.7816 24.0969 32.6706C24.2521 32.5596 24.4381 32.5 24.6289 32.5H106.996C107.187 32.5 107.373 32.5596 107.528 32.6706C107.683 32.7816 107.8 32.9384 107.861 33.119C107.923 33.2996 107.926 33.4949 107.871 33.6776C107.817 33.8602 107.706 34.0211 107.555 34.1377V34.1377Z" fill="black"/>
</svg>
