<svg width="88" height="82" viewBox="0 0 88 82" fill="none" xmlns="http://www.w3.org/2000/svg">
<path d="M79.2 71.75H70.4V26.9062L44 46.125L17.6 26.9062V71.75H8.8V10.25H14.08L44 32.0312L73.92 10.25H79.2V71.75ZM79.2 0H8.8C3.916 0 0 4.56125 0 10.25V71.75C0 74.4685 0.92714 77.0756 2.57746 78.9978C4.22778 80.9201 6.46609 82 8.8 82H79.2C81.5339 82 83.7722 80.9201 85.4225 78.9978C87.0729 77.0756 88 74.4685 88 71.75V10.25C88 7.53153 87.0729 4.9244 85.4225 3.00216C83.7722 1.07991 81.5339 0 79.2 0V0Z" fill="#FF5050"/>
</svg>
