<svg width="84" height="84" viewBox="0 0 84 84" fill="none" xmlns="http://www.w3.org/2000/svg">
<path d="M41.9725 55.6676C49.574 55.6676 55.7362 49.5054 55.7362 41.9039C55.7362 34.3024 49.574 28.1401 41.9725 28.1401C34.371 28.1401 28.2087 34.3024 28.2087 41.9039C28.2087 49.5054 34.371 55.6676 41.9725 55.6676Z" fill="#FF5050"/>
<path d="M83.0071 25.0648C82.9608 21.5934 82.311 18.1566 81.0867 14.9081C80.0249 12.1679 78.4033 9.67941 76.3254 7.60148C74.2474 5.52354 71.7589 3.9019 69.0187 2.84017C65.812 1.63639 62.4241 0.985483 58.9996 0.91517C54.5904 0.718086 53.1925 0.663086 42 0.663086C30.8075 0.663086 29.3729 0.663086 24.9958 0.91517C21.5728 0.986 18.1866 1.6369 14.9812 2.84017C12.2407 3.90116 9.75175 5.52254 7.67372 7.60057C5.59569 9.6786 3.97431 12.1675 2.91332 14.9081C1.70713 18.1124 1.05763 21.4994 0.992903 24.9227C0.79582 29.3364 0.736237 30.7343 0.736237 41.9268C0.736237 53.1193 0.736237 54.5493 0.992903 58.931C1.06165 62.3593 1.7079 65.7418 2.91332 68.9547C3.97609 71.6945 5.59868 74.1824 7.6774 76.2595C9.75613 78.3367 12.2453 79.9574 14.9858 81.0181C18.1824 82.2702 21.5692 82.9677 25.0004 83.0806C29.4142 83.2776 30.8121 83.3372 42.0046 83.3372C53.1971 83.3372 54.6317 83.3372 59.0087 83.0806C62.4332 83.0131 65.8212 82.3637 69.0279 81.1602C71.7673 80.0972 74.2552 78.4751 76.333 76.3973C78.4108 74.3196 80.0329 71.8317 81.0958 69.0922C82.3012 65.8839 82.9475 62.5014 83.0162 59.0685C83.2133 54.6593 83.2729 53.2614 83.2729 42.0643C83.2637 30.8718 83.2637 29.451 83.0071 25.0648V25.0648ZM41.9725 63.0927C30.2667 63.0927 20.7837 53.6097 20.7837 41.9039C20.7837 30.1981 30.2667 20.7152 41.9725 20.7152C47.5921 20.7152 52.9815 22.9475 56.9552 26.9212C60.9289 30.8949 63.1612 36.2843 63.1612 41.9039C63.1612 47.5235 60.9289 52.913 56.9552 56.8866C52.9815 60.8603 47.5921 63.0927 41.9725 63.0927V63.0927ZM64.0046 24.8722C63.3556 24.8728 62.7128 24.7455 62.1131 24.4974C61.5134 24.2493 60.9685 23.8854 60.5095 23.4265C60.0506 22.9675 59.6867 22.4226 59.4386 21.8229C59.1905 21.2232 59.0631 20.5804 59.0637 19.9314C59.0637 19.2829 59.1915 18.6407 59.4397 18.0415C59.6878 17.4423 60.0516 16.8979 60.5102 16.4393C60.9688 15.9808 61.5132 15.617 62.1124 15.3688C62.7116 15.1206 63.3537 14.9929 64.0023 14.9929C64.6508 14.9929 65.293 15.1206 65.8922 15.3688C66.4913 15.617 67.0358 15.9808 67.4944 16.4393C67.9529 16.8979 68.3167 17.4423 68.5649 18.0415C68.8131 18.6407 68.9408 19.2829 68.9408 19.9314C68.9408 22.6631 66.7317 24.8722 64.0046 24.8722Z" fill="#FF5050"/>
</svg>
