<svg width="67" height="67" viewBox="0 0 67 67" fill="none" xmlns="http://www.w3.org/2000/svg">
<path d="M55.8334 11.1665H16.75C13.6708 11.1665 11.1667 13.6706 11.1667 16.7498V30.7082H16.75V22.3332L34.6167 35.7332C35.1001 36.0952 35.6878 36.2908 36.2917 36.2908C36.8956 36.2908 37.4833 36.0952 37.9667 35.7332L55.8334 22.3332V47.4582H33.5V53.0415H55.8334C58.9126 53.0415 61.4167 50.5374 61.4167 47.4582V16.7498C61.4167 13.6706 58.9126 11.1665 55.8334 11.1665ZM36.2917 30.0103L18.6093 16.7498H53.9741L36.2917 30.0103Z" fill="#F8F8F8"/>
<path d="M5.58331 33.5H25.125V39.0833H5.58331V33.5ZM11.1666 41.875H27.9166V47.4583H11.1666V41.875ZM19.5416 50.25H30.7083V55.8333H19.5416V50.25Z" fill="#F8F8F8"/>
</svg>
