<svg width="106" height="93" viewBox="0 0 106 93" fill="none" xmlns="http://www.w3.org/2000/svg">
<path d="M106 11.0091C102.1 12.8763 97.9084 14.1382 93.5094 14.706C97.9999 11.8003 101.448 7.1992 103.071 1.71699C98.8026 4.45177 94.1322 6.3786 89.2619 7.41422C85.2948 2.85152 79.6433 0 73.388 0C61.3777 0 51.6402 10.512 51.6402 23.4773C51.6402 25.3177 51.8328 27.1093 52.2033 28.8281C34.1295 27.8487 18.1053 18.502 7.37901 4.29762C5.50744 7.76512 4.43502 11.7986 4.43502 16.1006C4.43502 24.2462 8.27463 31.432 14.1096 35.6424C10.6561 35.5257 7.27859 34.5187 4.25905 32.7055C4.2578 32.8039 4.2578 32.9022 4.2578 33.001C4.2578 44.3762 11.754 53.8655 21.7023 56.0223C18.4998 56.9626 15.1407 57.1002 11.8815 56.4247C14.6487 65.7521 22.6803 72.5396 32.1963 72.7296C24.7535 79.0263 15.3762 82.7799 5.18779 82.7799C3.43216 82.7799 1.70138 82.6686 0 82.4517C9.62405 89.1132 21.0551 93 33.3362 93C73.3375 93 95.2112 57.2248 95.2112 26.2001C95.2112 25.1818 95.1905 24.1693 95.1483 23.1626C99.4058 19.8399 103.081 15.7243 106 11.0091" fill="#FF5050"/>
</svg>
